<svg xmlns="http://www.w3.org/2000/svg" viewBox="0 0 100 100">
  <defs>
    <linearGradient id="grad" x1="0%" y1="0%" x2="100%" y2="100%">
      <stop offset="0%" stop-color="#34d399" />
      <stop offset="100%" stop-color="#059669" />
    </linearGradient>
  </defs>
  <rect width="100" height="100" rx="28" fill="url(#grad)" />
  <g transform="translate(25, 25) scale(2.0833)" fill="none" stroke="white" stroke-width="2.5" stroke-linecap="round" stroke-linejoin="round">
    <path d="M19 7V4a1 1 0 0 0-1-1H5a2 2 0 0 0 0 4h15a1 1 0 0 1 1 1v4h-3a2 2 0 0 0 0 4h3a8 8 0 0 1-8 8H5a2 2 0 0 1-2-2V8"/>
    <path d="M22 12v4"/>
    <path d="M19 14h-3"/>
  </g>
</svg>